<?xml version="1.0" standalone="no"?>
<!DOCTYPE svg PUBLIC "-//W3C//DTD SVG 20010904//EN"
 "http://www.w3.org/TR/2001/REC-SVG-20010904/DTD/svg10.dtd">
<svg version="1.0" xmlns="http://www.w3.org/2000/svg"
 width="192.000000pt" height="192.000000pt" viewBox="0 0 192.000000 192.000000"
 preserveAspectRatio="xMidYMid meet">

<g transform="translate(0.000000,192.000000) scale(0.100000,-0.100000)"
fill="#000000" stroke="none">
<path d="M583 1405 c-18 -8 -84 -28 -145 -45 -155 -42 -150 -39 -95 -61 l48
-19 71 36 c52 26 79 34 100 30 33 -6 107 -54 156 -100 38 -35 97 -116 85 -116
-4 0 -32 9 -60 20 -29 11 -92 23 -140 27 -64 4 -91 11 -105 25 -23 23 -31 23
-97 -2 -29 -12 -89 -24 -132 -27 -44 -3 -79 -9 -79 -13 0 -17 23 -70 30 -70 5
0 42 13 82 28 69 27 79 28 153 20 44 -4 105 -15 135 -24 81 -23 422 -164 445
-184 20 -16 142 -60 169 -60 8 0 16 -6 19 -12 3 -10 9 -10 27 0 19 12 24 12
31 0 5 -7 9 -16 9 -19 0 -3 17 -14 38 -23 52 -23 110 -14 118 19 3 13 23 35
45 49 21 15 39 33 39 41 0 21 17 27 40 13 18 -11 23 -10 36 7 9 12 11 21 4 23
-5 2 -10 8 -10 13 0 6 4 8 9 5 16 -10 41 6 41 26 0 11 5 28 11 40 8 14 7 28
-2 49 -17 42 -61 62 -121 57 -26 -3 -48 -1 -48 4 0 20 -73 37 -220 52 -85 8
-182 16 -215 18 l-60 3 -9 -42 c-5 -24 -13 -43 -18 -43 -30 0 -85 37 -132 87
-30 32 -81 74 -114 93 -33 19 -68 47 -78 62 -22 32 -19 32 -61 13z m852 -246
c12 -19 -5 -23 -22 -6 -16 16 -16 17 -1 17 9 0 20 -5 23 -11z"/>
<path d="M220 660 c0 -83 1 -90 20 -90 16 0 20 7 20 35 0 32 3 35 28 35 37 0
52 17 52 57 0 38 -25 53 -86 53 l-34 0 0 -90z m84 44 c7 -19 -10 -44 -30 -44
-9 0 -14 11 -14 30 0 23 5 30 19 30 10 0 22 -7 25 -16z"/>
<path d="M1286 731 c-27 -30 -14 -67 29 -81 43 -14 53 -29 30 -46 -11 -9 -25
-10 -41 -4 -14 6 -26 6 -29 0 -12 -19 7 -30 50 -30 37 0 48 5 61 25 23 35 7
69 -41 85 -44 15 -41 35 6 36 51 0 46 28 -7 32 -30 2 -45 -2 -58 -17z"/>
<path d="M370 640 c0 -56 3 -70 15 -70 10 0 15 10 15 28 l1 27 20 -27 c11 -16
29 -28 40 -28 18 0 18 2 4 23 -12 19 -13 29 -2 56 11 29 10 34 -7 47 -11 8
-35 14 -53 14 l-33 0 0 -70z m63 25 c1 -5 -6 -11 -15 -13 -11 -2 -18 3 -18 13
0 17 30 18 33 0z"/>
<path d="M510 683 c-39 -49 -10 -113 51 -113 38 0 59 24 59 70 0 68 -69 94
-110 43z m76 -27 c11 -45 -34 -91 -50 -50 -8 21 -8 59 1 67 15 16 43 6 49 -17z"/>
<path d="M640 705 c0 -3 9 -23 20 -45 11 -22 20 -51 20 -65 0 -16 6 -25 15
-25 9 0 15 10 15 26 0 14 12 45 26 70 24 41 25 44 7 44 -12 0 -25 -11 -32 -27
l-13 -28 -14 28 c-12 23 -44 39 -44 22z"/>
<path d="M780 640 l0 -70 45 0 c33 0 45 4 45 15 0 10 -10 15 -30 15 -20 0 -30
5 -30 15 0 8 9 15 20 15 11 0 20 4 20 9 0 5 -9 11 -20 14 -28 7 -25 27 5 27
16 0 25 6 25 15 0 11 -11 15 -40 15 l-40 0 0 -70z"/>
<path d="M910 690 c-26 -26 -26 -81 -2 -103 23 -21 82 -23 82 -3 0 10 -9 14
-27 13 -26 -2 -28 1 -31 40 -3 39 -1 42 24 45 15 2 29 9 32 16 6 20 -56 14
-78 -8z"/>
<path d="M1007 703 c-13 -12 -7 -23 13 -23 18 0 20 -7 20 -55 0 -42 3 -55 15
-55 12 0 15 13 15 55 0 48 2 55 20 55 11 0 20 7 20 15 0 11 -12 15 -48 15 -27
0 -52 -3 -55 -7z"/>
<path d="M1140 690 c-43 -43 -14 -120 44 -120 42 0 66 26 66 73 0 60 -68 89
-110 47z m68 -54 c-2 -33 -7 -41 -23 -41 -15 0 -21 8 -23 33 -4 38 12 64 34
55 11 -4 14 -18 12 -47z"/>
<path d="M1427 703 c-10 -10 -8 -78 3 -107 8 -22 16 -26 50 -26 47 0 54 10 55
85 0 39 -4 50 -17 53 -14 3 -17 -6 -20 -55 -2 -44 -7 -58 -18 -58 -11 0 -16
14 -18 58 -3 54 -15 71 -35 50z"/>
<path d="M1570 639 l0 -70 46 3 c51 3 73 23 59 54 -4 11 -7 30 -6 43 3 30 -13
41 -61 41 l-38 0 0 -71z m68 29 c-6 -18 -28 -21 -28 -4 0 9 7 16 16 16 9 0 14
-5 12 -12z m-1 -55 c2 -6 -3 -13 -12 -16 -10 -5 -15 0 -15 14 0 21 21 22 27 2z"/>
</g>
</svg>
